<svg width="27" height="20" viewBox="0 0 27 20" fill="none" xmlns="http://www.w3.org/2000/svg">
<path d="M0 2.09021C0 0.985642 0.895431 0.09021 2 0.09021H25C26.1046 0.09021 27 0.98564 27 2.09021V17.1127C27 18.2173 26.1046 19.1127 25 19.1127H2C0.895431 19.1127 0 18.2173 0 17.1127V2.09021Z" fill="white"/>
<path d="M15.8842 9.60148L27 1.76998C27 0.842268 26.2479 0.09021 25.3202 0.09021H24.6158L13.5 7.92171L2.38421 0.09021H1.67977C0.752059 0.09021 0 0.842268 0 1.76998L11.1158 9.60148L0 17.433C0 18.3607 0.752058 19.1127 1.67977 19.1127H2.38421L13.5 11.2812L24.6158 19.1127H25.3202C26.2479 19.1127 27 18.3607 27 17.433L15.8842 9.60148Z" fill="#D80027"/>
<path d="M12.2999 2.57097L13.4736 2.88245L14.6472 2.57097L14.8578 1.40848L14.0736 1.77002L13.4736 0.913452L12.8736 1.77002L12.0894 1.40848L12.2999 2.57097Z" fill="#FFDA44"/>
<path d="M12.2999 2.57083C12.2999 2.57083 12.0894 3.28835 12.0894 4.23391C12.0894 5.78575 13.4736 6.53108 13.4736 6.53108C13.4736 6.53108 14.8578 5.66895 14.8578 4.23391C14.8578 3.37734 14.6472 2.57083 14.6472 2.57083C14.6472 2.57083 14.2209 2.29272 13.4736 2.29272C12.7262 2.29272 12.2999 2.57083 12.2999 2.57083Z" fill="#D80027"/>
<rect y="0.09021" width="27" height="19.0225" rx="2" fill="white"/>
<rect x="7.96154" y="3.96521" width="11.0769" height="11.2726" rx="5.53846" fill="#BC002D"/>
</svg>
