<svg width="27" height="20" viewBox="0 0 27 20" fill="none" xmlns="http://www.w3.org/2000/svg">
<g clip-path="url(#clip0_1_867)">
<rect y="0.287048" width="27" height="19.0225" rx="2" fill="white"/>
<path fill-rule="evenodd" clip-rule="evenodd" d="M0 0.287048H11.5714V9.16423H0V0.287048Z" fill="#1A47B8"/>
<path fill-rule="evenodd" clip-rule="evenodd" d="M11.5714 0.287048V1.55522H27V0.287048H11.5714ZM11.5714 2.82339V4.09156H27V2.82339H11.5714ZM11.5714 5.35973V6.62789H27V5.35973H11.5714ZM11.5714 7.89606V9.16423H27V7.89606H11.5714ZM0 10.4324V11.7006H27V10.4324H0ZM0 12.9687V14.2369H27V12.9687H0ZM0 15.5051V16.7732H27V15.5051H0ZM0 18.0414V19.3096H27V18.0414H0Z" fill="#F93939"/>
<path fill-rule="evenodd" clip-rule="evenodd" d="M1.28577 1.5556V2.82377H2.57148V1.5556H1.28577ZM3.8572 1.5556V2.82377H5.14291V1.5556H3.8572ZM6.42862 1.5556V2.82377H7.71434V1.5556H6.42862ZM9.00005 1.5556V2.82377H10.2858V1.5556H9.00005ZM7.71434 2.82377V4.09194H9.00005V2.82377H7.71434ZM5.14291 2.82377V4.09194H6.42862V2.82377H5.14291ZM2.57148 2.82377V4.09194H3.8572V2.82377H2.57148ZM1.28577 4.09194V5.36011H2.57148V4.09194H1.28577ZM3.8572 4.09194V5.36011H5.14291V4.09194H3.8572ZM6.42862 4.09194V5.36011H7.71434V4.09194H6.42862ZM9.00005 4.09194V5.36011H10.2858V4.09194H9.00005ZM1.28577 6.62828V7.89645H2.57148V6.62828H1.28577ZM3.8572 6.62828V7.89645H5.14291V6.62828H3.8572ZM6.42862 6.62828V7.89645H7.71434V6.62828H6.42862ZM9.00005 6.62828V7.89645H10.2858V6.62828H9.00005ZM7.71434 5.36011V6.62828H9.00005V5.36011H7.71434ZM5.14291 5.36011V6.62828H6.42862V5.36011H5.14291ZM2.57148 5.36011V6.62828H3.8572V5.36011H2.57148Z" fill="white"/>
</g>
<defs>
<clipPath id="clip0_1_867">
<rect y="0.287048" width="27" height="19.0225" rx="2" fill="white"/>
</clipPath>
</defs>
</svg>
