<svg width="27" height="19" viewBox="0 0 27 19" fill="none" xmlns="http://www.w3.org/2000/svg">
<path d="M0.0629883 2C0.0629883 0.895431 0.958419 0 2.06299 0H25.0001C26.1047 0 27.0001 0.895431 27.0001 2V17C27.0001 18.1046 26.1047 19 25.0001 19H2.06299C0.95842 19 0.0629883 18.1046 0.0629883 17V2Z" fill="#10338C"/>
<path d="M11.7305 9.48333C11.7463 9.46667 11.7568 9.45 11.7725 9.43333C11.762 9.45 11.7463 9.46667 11.7305 9.48333ZM9.93472 11.8111L10.5123 13.0833L11.8093 12.7667L11.2317 14.0333L12.2766 14.9111L10.9744 15.2222L10.9796 16.6333L9.93472 15.75L8.89504 16.6333L8.90029 15.2222L7.59806 14.9111L8.64299 14.0333L8.06014 12.7667L9.36237 13.0833L9.93472 11.8111ZM20.3263 13.3944L20.5993 14L21.2189 13.85L20.9406 14.4556L21.4395 14.8722L20.8199 15.0167V15.6944L20.3263 15.2722L19.8274 15.6944L19.8327 15.0167L19.2131 14.8722L19.7119 14.4556L19.4336 13.85L20.0532 14L20.3263 13.3944ZM17.7743 6.95L18.0474 7.55556L18.667 7.40556L18.3887 8.01111L18.8875 8.42778L18.2679 8.57778V9.25L17.7743 8.82778L17.2755 9.25L17.2807 8.57778L16.6559 8.42778L17.1547 8.01111L16.8764 7.40556L17.496 7.55556L17.7743 6.95ZM20.3263 3.27222L20.5993 3.87778L21.2189 3.72778L20.9406 4.33333L21.4395 4.75L20.8199 4.9V5.57222L20.3263 5.15L19.8274 5.57222L19.8327 4.9L19.2131 4.75L19.7119 4.33333L19.4336 3.72778L20.0532 3.87778L20.3263 3.27222ZM22.5579 6.03333L22.8309 6.63889L23.4506 6.48889L23.1723 7.09444L23.6711 7.51111L23.0515 7.65556V8.33333L22.5579 7.91111L22.0591 8.33333V7.65556L21.4395 7.51111L21.9383 7.09444L21.66 6.48889L22.2796 6.63889L22.5579 6.03333ZM20.9616 9.25L21.1769 9.95555H21.8753L21.3082 10.3889L21.5287 11.0944L20.9616 10.6556L20.3945 11.0944L20.6098 10.3889L20.048 9.95555H20.7463L20.9616 9.25Z" fill="white"/>
<path d="M13.4423 0V1.7L11.0742 3.09444H13.4423V6.38889H10.339L13.4423 8.21111V9.48333H12.0403L8.18091 7.21111V9.48333H5.26141V6.78333L0.672116 9.48333H0V7.78333L2.37341 6.38889H0V3.09444H3.10329L0 1.26667V0H1.40199L5.26141 2.26667V0H8.18091V2.7L12.7755 0H13.4423Z" fill="white"/>
<path d="M7.56131 0H5.88102V3.85H0V5.62778H5.88102V9.48333H7.56131V5.62778H13.4423V3.85H7.56131V0Z" fill="#D80027"/>
<path d="M8.18066 6.38867L13.4421 9.48312V8.60534L9.67192 6.38867H8.18066Z" fill="#0052B4"/>
<path d="M8.18066 6.38867L13.4421 9.48312V8.60534L9.67192 6.38867H8.18066Z" fill="white"/>
<path d="M8.18091 6.38867L13.4423 9.48312V8.60534L9.67217 6.38867H8.18091ZM3.7754 6.38867L0 8.60534V9.48312L5.26141 6.38867H3.7754Z" fill="#D80027"/>
<path d="M5.26141 3.09444L0 0V0.872222L3.7754 3.09444H5.26141Z" fill="#0052B4"/>
<path d="M5.26141 3.09444L0 0V0.872222L3.7754 3.09444H5.26141Z" fill="white"/>
<path d="M5.26141 3.09444L0 0V0.872222L3.7754 3.09444H5.26141ZM9.67217 3.09444L13.4423 0.872222V0L8.18091 3.09444H9.67217Z" fill="#D80027"/>
</svg>
