<svg width="27" height="21" viewBox="0 0 27 21" fill="none" xmlns="http://www.w3.org/2000/svg">
<path d="M0 2.99536C0 1.89079 0.895431 0.995361 2 0.995361H25C26.1046 0.995361 27 1.89079 27 2.99536V18.0179C27 19.1225 26.1046 20.0179 25 20.0179H2C0.895431 20.0179 0 19.1225 0 18.0179V2.99536Z" fill="white"/>
<path d="M15.8842 10.5066L27 2.67513C27 1.74742 26.2479 0.995361 25.3202 0.995361H24.6158L13.5 8.82686L2.38421 0.995361H1.67977C0.752059 0.995361 0 1.74742 0 2.67513L11.1158 10.5066L0 18.3381C0 19.2658 0.752058 20.0179 1.67977 20.0179H2.38421L13.5 12.1864L24.6158 20.0179H25.3202C26.2479 20.0179 27 19.2658 27 18.3381L15.8842 10.5066Z" fill="#D80027"/>
<path d="M12.2999 3.47612L13.4736 3.7876L14.6472 3.47612L14.8578 2.31363L14.0736 2.67517L13.4736 1.8186L12.8736 2.67517L12.0894 2.31363L12.2999 3.47612Z" fill="#FFDA44"/>
<path d="M12.2999 3.47598C12.2999 3.47598 12.0894 4.1935 12.0894 5.13907C12.0894 6.6909 13.4736 7.43623 13.4736 7.43623C13.4736 7.43623 14.8578 6.5741 14.8578 5.13907C14.8578 4.28249 14.6472 3.47598 14.6472 3.47598C14.6472 3.47598 14.2209 3.19788 13.4736 3.19788C12.7262 3.19788 12.2999 3.47598 12.2999 3.47598Z" fill="#D80027"/>
</svg>
