<svg width="27" height="19" viewBox="0 0 27 19" fill="none" xmlns="http://www.w3.org/2000/svg">
<g clip-path="url(#clip0_1_875)">
<rect width="27" height="19" rx="2" fill="white"/>
<rect x="20.7692" width="6.23077" height="19" fill="#D52B1E"/>
<rect width="6.23077" height="19" fill="#D52B1E"/>
<path fill-rule="evenodd" clip-rule="evenodd" d="M13.2404 16.1855H13.7596L13.673 13.1948L14.0192 13.0188L16.6162 13.5466L16.2692 12.4911L19.3846 9.85218L18.5192 9.50033L19.2115 7.38921L17.3077 7.91699L16.9615 6.86144L15.5769 8.44477H15.2307L15.923 4.75033L14.8846 5.45403L14.7115 5.4621L13.5 3.16699L12.2884 5.45403H12.1154L11.0769 4.75033L11.7692 8.44477H11.423L10.0384 6.86144L9.69228 7.91699L7.78843 7.38921L8.48074 9.50033L7.61536 9.85218L10.7315 12.4911L10.3846 13.5466L12.9807 13.0188L13.3269 13.1948L13.2404 16.1855Z" fill="#D52B1E"/>
</g>
<defs>
<clipPath id="clip0_1_875">
<rect width="27" height="19" rx="2" fill="white"/>
</clipPath>
</defs>
</svg>
