<svg width="27" height="20" viewBox="0 0 27 20" fill="none" xmlns="http://www.w3.org/2000/svg">
<path d="M0 2.85645C0 1.75188 0.895431 0.856445 2 0.856445H25C26.1046 0.856445 27 1.75188 27 2.85645V17.879C27 18.9836 26.1046 19.879 25 19.879H2C0.895431 19.879 0 18.9836 0 17.879V2.85645Z" fill="#009B3A"/>
<path d="M13.4999 1.92998L24.2841 10.3511L13.4999 18.7666L2.66309 10.3511L13.4999 1.92998Z" fill="#FEDF00"/>
<path d="M13.5001 14.8397C15.8372 14.8397 17.7317 12.8375 17.7317 10.3677C17.7317 7.8979 15.8372 5.89574 13.5001 5.89574C11.1631 5.89574 9.26855 7.8979 9.26855 10.3677C9.26855 12.8375 11.1631 14.8397 13.5001 14.8397Z" fill="white"/>
<path d="M11.363 10.0729C10.6314 10.0729 9.92086 10.1897 9.25244 10.4067C9.28402 12.8484 11.163 14.8174 13.4788 14.8174C14.9103 14.8174 16.1788 14.061 16.9419 12.9096C15.6314 11.1854 13.6156 10.0729 11.363 10.0729ZM17.6261 11.202C17.6735 10.9239 17.7051 10.6403 17.7051 10.3455C17.7051 7.87588 15.8103 5.8735 13.4735 5.8735C11.7314 5.8735 10.2367 6.9915 9.58402 8.57671C10.1577 8.45434 10.7472 8.38759 11.3524 8.38759C13.8156 8.39316 16.0367 9.47221 17.6261 11.202Z" fill="#002776"/>
</svg>
