<svg width="27" height="19" viewBox="0 0 27 19" fill="none" xmlns="http://www.w3.org/2000/svg">
<path d="M0 2C0 0.895431 0.895431 0 2 0H25C26.1046 0 27 0.895431 27 2V17C27 18.1046 26.1046 19 25 19H2C0.895431 19 0 18.1046 0 17V2Z" fill="white"/>
<path d="M0 2C0 0.895432 0.895431 0 2 0H25C26.1046 0 27 0.895431 27 2V6.33333H0V2ZM0 12.6667H27V17C27 18.1046 26.1046 19 25 19H2C0.895431 19 0 18.1046 0 17V12.6667Z" fill="#338AF3"/>
<path d="M13.5264 11.7218C14.6913 11.7218 15.6357 10.7269 15.6357 9.49957C15.6357 8.27227 14.6913 7.27734 13.5264 7.27734C12.3614 7.27734 11.417 8.27227 11.417 9.49957C11.417 10.7269 12.3614 11.7218 13.5264 11.7218Z" fill="#FFDA44"/>
<path fill-rule="evenodd" clip-rule="evenodd" d="M13.5264 7.41645C12.4342 7.41645 11.5488 8.34919 11.5488 9.49978C11.5488 10.6504 12.4342 11.5831 13.5264 11.5831C14.6185 11.5831 15.5039 10.6504 15.5039 9.49978C15.5039 8.34919 14.6185 7.41645 13.5264 7.41645ZM11.2852 9.49978C11.2852 8.19578 12.2886 7.13867 13.5264 7.13867C14.7642 7.13867 15.7676 8.19578 15.7676 9.49978C15.7676 10.8038 14.7642 11.8609 13.5264 11.8609C12.2886 11.8609 11.2852 10.8038 11.2852 9.49978Z" fill="#D6AB00"/>
</svg>
