<svg width="27" height="20" viewBox="0 0 27 20" fill="none" xmlns="http://www.w3.org/2000/svg">
<path d="M0.910645 2.80548C0.910645 1.70091 1.80607 0.805481 2.91064 0.805481H24.0896C25.1942 0.805481 26.0896 1.70091 26.0896 2.80548V17.828C26.0896 18.9326 25.1942 19.828 24.0896 19.828H2.91064C1.80607 19.828 0.910645 18.9326 0.910645 17.828V2.80548Z" fill="#181A93"/>
<path d="M0 2.80548C0 1.70091 0.895431 0.805481 2 0.805481H25C26.1046 0.805481 27 1.70091 27 2.80548V7.14633H0V2.80548Z" fill="#FFA44A"/>
<path d="M0 13.4871H27V17.828C27 18.9325 26.1046 19.828 25 19.828H2C0.895431 19.828 0 18.9325 0 17.828V13.4871Z" fill="#1A9F0B"/>
<path d="M0 7.14636H27V13.4872H0V7.14636Z" fill="white"/>
<path d="M13.5002 12.219C14.4943 12.219 15.3002 11.3673 15.3002 10.3167C15.3002 9.26616 14.4943 8.41449 13.5002 8.41449C12.5061 8.41449 11.7002 9.26616 11.7002 10.3167C11.7002 11.3673 12.5061 12.219 13.5002 12.219Z" fill="white"/>
<path d="M13.5001 12.8531C12.179 12.8531 11.1001 11.7128 11.1001 10.3167C11.1001 8.92064 12.179 7.7804 13.5001 7.7804C14.8212 7.7804 15.9001 8.92064 15.9001 10.3167C15.9001 11.7128 14.8212 12.8531 13.5001 12.8531ZM13.5001 12.219C14.458 12.219 15.3001 11.329 15.3001 10.3167C15.3001 9.30442 14.4633 8.41448 13.5001 8.41448C12.5369 8.41448 11.7001 9.30442 11.7001 10.3167C11.7001 11.329 12.5422 12.219 13.5001 12.219Z" fill="#181A93"/>
<path d="M13.4998 11.5849C14.1625 11.5849 14.6998 11.0171 14.6998 10.3167C14.6998 9.6163 14.1625 9.04852 13.4998 9.04852C12.8371 9.04852 12.2998 9.6163 12.2998 10.3167C12.2998 11.0171 12.8371 11.5849 13.4998 11.5849Z" fill="#181A93"/>
</svg>
