<svg width="27" height="20" viewBox="0 0 27 20" fill="none" xmlns="http://www.w3.org/2000/svg">
<path d="M0 2.61566C0 1.51109 0.895431 0.615662 2 0.615662H25C26.1046 0.615662 27 1.51109 27 2.61566V17.6382C27 18.7428 26.1046 19.6382 25 19.6382H2C0.895431 19.6382 0 18.7428 0 17.6382V2.61566Z" fill="#D80027"/>
<path d="M14.4315 7.27912C14.1631 8.45274 13.6894 8.23025 13.4578 9.25368C12.0841 8.90327 11.242 7.44599 11.5683 5.99427C11.8999 4.54255 13.2788 3.6526 14.6473 3.99746C14.1894 6.04989 14.6736 6.22788 14.4315 7.27912ZM10.8736 8.14682C11.8473 8.77534 11.4999 9.18694 12.3473 9.73759C11.6104 11.0113 10.0367 11.4062 8.83148 10.6275C7.62621 9.84883 7.25253 8.18575 7.98937 6.91202C9.68937 8.01333 9.9999 7.58504 10.8736 8.14682ZM10.5578 11.9958C11.4262 11.2116 11.6841 11.6899 12.442 11.0058C13.3578 12.1404 13.2315 13.8425 12.1578 14.8103C11.0841 15.7781 9.47358 15.6446 8.55779 14.5099C10.0683 13.1416 9.77885 12.6967 10.5578 11.9958ZM13.921 13.5032C13.4841 12.3852 13.9946 12.2739 13.6104 11.3006C14.9157 10.7277 16.4104 11.384 16.9473 12.7634C17.4894 14.1428 16.8683 15.7225 15.5631 16.2898C14.7999 14.343 14.3104 14.4988 13.921 13.5032ZM16.3157 10.5886C15.1788 10.6832 15.2315 10.1381 14.2367 10.2215C14.1262 8.7364 15.1788 7.43486 16.5841 7.31806C17.9894 7.20125 19.221 8.31368 19.3315 9.79878C17.3473 9.96008 17.3367 10.5052 16.3157 10.5886Z" fill="white"/>
</svg>
